<mxfile host="app.diagrams.net" agent="Mozilla/5.0 (Windows NT 10.0; Win64; x64) AppleWebKit/537.36 (KHTML, like Gecko) Chrome/134.0.0.0 Safari/537.36" version="26.1.1">
  <diagram name="Página-1" id="yAAzpFQyS6-moK5LKDy-">
    <mxGraphModel dx="2074" dy="841" grid="1" gridSize="10" guides="1" tooltips="1" connect="1" arrows="1" fold="1" page="1" pageScale="1" pageWidth="1200" pageHeight="1600" math="0" shadow="0">
      <root>
        <mxCell id="0" />
        <mxCell id="1" parent="0" />
        <mxCell id="1HN_ALmHhBf3XGady2QY-1" value="&lt;b&gt;Ambiente homologação&lt;/b&gt;" style="rounded=0;whiteSpace=wrap;html=1;fillColor=none;dashed=1;dashPattern=8 8;labelPosition=right;verticalLabelPosition=middle;align=left;verticalAlign=middle;" vertex="1" parent="1">
          <mxGeometry x="20" y="350" width="1400" height="130" as="geometry" />
        </mxCell>
        <mxCell id="NYfBf1Peq1otCfuUK5g1-24" value="&lt;b&gt;Ambiente produção&lt;/b&gt;" style="rounded=0;whiteSpace=wrap;html=1;fillColor=none;dashed=1;dashPattern=8 8;labelPosition=right;verticalLabelPosition=middle;align=left;verticalAlign=middle;" parent="1" vertex="1">
          <mxGeometry x="20" y="150" width="1400" height="180" as="geometry" />
        </mxCell>
        <mxCell id="NYfBf1Peq1otCfuUK5g1-10" value="&lt;b&gt;Ambiente desenvolvimento&lt;/b&gt;" style="rounded=0;whiteSpace=wrap;html=1;fillColor=none;dashed=1;dashPattern=8 8;labelPosition=right;verticalLabelPosition=middle;align=left;verticalAlign=middle;" parent="1" vertex="1">
          <mxGeometry x="20" y="500" width="1400" height="285" as="geometry" />
        </mxCell>
        <mxCell id="NYfBf1Peq1otCfuUK5g1-1" value="" style="ellipse;whiteSpace=wrap;html=1;aspect=fixed;fillColor=#60a917;strokeColor=#2D7600;fontColor=#ffffff;" parent="1" vertex="1">
          <mxGeometry x="100" y="190" width="50" height="50" as="geometry" />
        </mxCell>
        <mxCell id="NYfBf1Peq1otCfuUK5g1-4" value="" style="ellipse;whiteSpace=wrap;html=1;aspect=fixed;fillColor=#fff2cc;strokeColor=#d6b656;" parent="1" vertex="1">
          <mxGeometry x="170" y="575" width="50" height="50" as="geometry" />
        </mxCell>
        <mxCell id="NYfBf1Peq1otCfuUK5g1-5" value="&lt;b&gt;main&lt;/b&gt;" style="text;html=1;align=center;verticalAlign=middle;whiteSpace=wrap;rounded=0;" parent="1" vertex="1">
          <mxGeometry x="20" y="200" width="60" height="30" as="geometry" />
        </mxCell>
        <mxCell id="NYfBf1Peq1otCfuUK5g1-6" value="&lt;b&gt;develop&lt;/b&gt;" style="text;html=1;align=center;verticalAlign=middle;whiteSpace=wrap;rounded=0;" parent="1" vertex="1">
          <mxGeometry x="20" y="585" width="60" height="30" as="geometry" />
        </mxCell>
        <mxCell id="NYfBf1Peq1otCfuUK5g1-9" value="" style="endArrow=classic;html=1;rounded=0;exitX=0.5;exitY=1;exitDx=0;exitDy=0;edgeStyle=orthogonalEdgeStyle;curved=1;strokeWidth=2;dashed=1;entryX=0;entryY=0.5;entryDx=0;entryDy=0;" parent="1" source="NYfBf1Peq1otCfuUK5g1-1" target="NYfBf1Peq1otCfuUK5g1-4" edge="1">
          <mxGeometry width="50" height="50" relative="1" as="geometry">
            <mxPoint x="130" y="320" as="sourcePoint" />
            <mxPoint x="220" y="320" as="targetPoint" />
          </mxGeometry>
        </mxCell>
        <mxCell id="NYfBf1Peq1otCfuUK5g1-11" value="" style="ellipse;whiteSpace=wrap;html=1;aspect=fixed;fillColor=#dae8fc;strokeColor=#6c8ebf;" parent="1" vertex="1">
          <mxGeometry x="240" y="650" width="50" height="50" as="geometry" />
        </mxCell>
        <mxCell id="NYfBf1Peq1otCfuUK5g1-12" value="feature/*" style="text;html=1;align=center;verticalAlign=middle;whiteSpace=wrap;rounded=0;" parent="1" vertex="1">
          <mxGeometry x="20" y="700" width="60" height="30" as="geometry" />
        </mxCell>
        <mxCell id="NYfBf1Peq1otCfuUK5g1-13" value="" style="endArrow=classic;html=1;rounded=0;exitX=0.5;exitY=1;exitDx=0;exitDy=0;edgeStyle=orthogonalEdgeStyle;curved=1;strokeWidth=2;dashed=1;entryX=0;entryY=0.5;entryDx=0;entryDy=0;" parent="1" source="NYfBf1Peq1otCfuUK5g1-4" target="NYfBf1Peq1otCfuUK5g1-11" edge="1">
          <mxGeometry width="50" height="50" relative="1" as="geometry">
            <mxPoint x="340" y="647.21" as="sourcePoint" />
            <mxPoint x="430" y="647.21" as="targetPoint" />
          </mxGeometry>
        </mxCell>
        <mxCell id="NYfBf1Peq1otCfuUK5g1-14" value="" style="ellipse;whiteSpace=wrap;html=1;aspect=fixed;fillColor=#dae8fc;strokeColor=#6c8ebf;" parent="1" vertex="1">
          <mxGeometry x="240" y="725" width="50" height="50" as="geometry" />
        </mxCell>
        <mxCell id="NYfBf1Peq1otCfuUK5g1-15" value="" style="endArrow=classic;html=1;rounded=0;exitX=0.5;exitY=1;exitDx=0;exitDy=0;edgeStyle=orthogonalEdgeStyle;curved=1;strokeWidth=2;dashed=1;entryX=0;entryY=0.5;entryDx=0;entryDy=0;" parent="1" source="NYfBf1Peq1otCfuUK5g1-4" target="NYfBf1Peq1otCfuUK5g1-14" edge="1">
          <mxGeometry width="50" height="50" relative="1" as="geometry">
            <mxPoint x="140" y="845" as="sourcePoint" />
            <mxPoint x="230" y="845" as="targetPoint" />
          </mxGeometry>
        </mxCell>
        <mxCell id="NYfBf1Peq1otCfuUK5g1-16" value="" style="ellipse;whiteSpace=wrap;html=1;aspect=fixed;fillColor=#fff2cc;strokeColor=#d6b656;" parent="1" vertex="1">
          <mxGeometry x="300" y="575" width="50" height="50" as="geometry" />
        </mxCell>
        <mxCell id="NYfBf1Peq1otCfuUK5g1-17" value="" style="endArrow=classic;html=1;rounded=0;exitX=1;exitY=0.5;exitDx=0;exitDy=0;edgeStyle=orthogonalEdgeStyle;curved=1;strokeWidth=2;dashed=1;entryX=0;entryY=0.5;entryDx=0;entryDy=0;" parent="1" source="NYfBf1Peq1otCfuUK5g1-4" target="NYfBf1Peq1otCfuUK5g1-16" edge="1">
          <mxGeometry width="50" height="50" relative="1" as="geometry">
            <mxPoint x="140" y="845" as="sourcePoint" />
            <mxPoint x="230" y="845" as="targetPoint" />
          </mxGeometry>
        </mxCell>
        <mxCell id="NYfBf1Peq1otCfuUK5g1-18" value="" style="endArrow=classic;html=1;rounded=0;exitX=1;exitY=0.5;exitDx=0;exitDy=0;edgeStyle=orthogonalEdgeStyle;curved=1;strokeWidth=2;dashed=1;" parent="1" source="NYfBf1Peq1otCfuUK5g1-11" target="NYfBf1Peq1otCfuUK5g1-16" edge="1">
          <mxGeometry width="50" height="50" relative="1" as="geometry">
            <mxPoint x="140" y="845" as="sourcePoint" />
            <mxPoint x="230" y="845" as="targetPoint" />
          </mxGeometry>
        </mxCell>
        <mxCell id="NYfBf1Peq1otCfuUK5g1-19" value="" style="ellipse;whiteSpace=wrap;html=1;aspect=fixed;fillColor=#fff2cc;strokeColor=#d6b656;" parent="1" vertex="1">
          <mxGeometry x="410" y="575" width="50" height="50" as="geometry" />
        </mxCell>
        <mxCell id="NYfBf1Peq1otCfuUK5g1-20" value="" style="endArrow=classic;html=1;rounded=0;edgeStyle=orthogonalEdgeStyle;curved=1;strokeWidth=2;dashed=1;entryX=0;entryY=0.5;entryDx=0;entryDy=0;exitX=1;exitY=0.5;exitDx=0;exitDy=0;" parent="1" source="NYfBf1Peq1otCfuUK5g1-16" target="NYfBf1Peq1otCfuUK5g1-19" edge="1">
          <mxGeometry width="50" height="50" relative="1" as="geometry">
            <mxPoint x="476" y="590" as="sourcePoint" />
            <mxPoint x="345" y="845" as="targetPoint" />
          </mxGeometry>
        </mxCell>
        <mxCell id="NYfBf1Peq1otCfuUK5g1-21" value="" style="endArrow=classic;html=1;rounded=0;exitX=1;exitY=0.5;exitDx=0;exitDy=0;edgeStyle=orthogonalEdgeStyle;curved=1;strokeWidth=2;dashed=1;entryX=0.5;entryY=1;entryDx=0;entryDy=0;" parent="1" source="NYfBf1Peq1otCfuUK5g1-14" target="NYfBf1Peq1otCfuUK5g1-19" edge="1">
          <mxGeometry width="50" height="50" relative="1" as="geometry">
            <mxPoint x="460" y="815" as="sourcePoint" />
            <mxPoint x="550" y="815" as="targetPoint" />
          </mxGeometry>
        </mxCell>
        <mxCell id="NYfBf1Peq1otCfuUK5g1-22" value="" style="ellipse;whiteSpace=wrap;html=1;aspect=fixed;fillColor=#fff2cc;strokeColor=#d6b656;" parent="1" vertex="1">
          <mxGeometry x="925" y="575" width="50" height="50" as="geometry" />
        </mxCell>
        <mxCell id="NYfBf1Peq1otCfuUK5g1-23" value="" style="endArrow=classic;html=1;rounded=0;edgeStyle=orthogonalEdgeStyle;curved=1;strokeWidth=2;dashed=1;entryX=0;entryY=0.5;entryDx=0;entryDy=0;exitX=0.5;exitY=0;exitDx=0;exitDy=0;" parent="1" source="NYfBf1Peq1otCfuUK5g1-19" target="NYfBf1Peq1otCfuUK5g1-25" edge="1">
          <mxGeometry width="50" height="50" relative="1" as="geometry">
            <mxPoint x="650" y="590" as="sourcePoint" />
            <mxPoint x="519" y="845" as="targetPoint" />
          </mxGeometry>
        </mxCell>
        <mxCell id="NYfBf1Peq1otCfuUK5g1-25" value="" style="ellipse;whiteSpace=wrap;html=1;aspect=fixed;fillColor=#ffe6cc;strokeColor=#d79b00;" parent="1" vertex="1">
          <mxGeometry x="480" y="515" width="50" height="50" as="geometry" />
        </mxCell>
        <mxCell id="NYfBf1Peq1otCfuUK5g1-27" value="bugfix/*" style="text;html=1;align=center;verticalAlign=middle;whiteSpace=wrap;rounded=0;" parent="1" vertex="1">
          <mxGeometry x="20" y="525" width="60" height="30" as="geometry" />
        </mxCell>
        <mxCell id="NYfBf1Peq1otCfuUK5g1-28" value="" style="ellipse;whiteSpace=wrap;html=1;aspect=fixed;fillColor=#f8cecc;strokeColor=#b85450;" parent="1" vertex="1">
          <mxGeometry x="835" y="270" width="50" height="50" as="geometry" />
        </mxCell>
        <mxCell id="NYfBf1Peq1otCfuUK5g1-29" value="hotfix/*" style="text;html=1;align=center;verticalAlign=middle;whiteSpace=wrap;rounded=0;" parent="1" vertex="1">
          <mxGeometry x="20" y="280" width="60" height="30" as="geometry" />
        </mxCell>
        <mxCell id="NYfBf1Peq1otCfuUK5g1-31" value="" style="ellipse;whiteSpace=wrap;html=1;aspect=fixed;fillColor=#60a917;strokeColor=#2D7600;fontColor=#ffffff;" parent="1" vertex="1">
          <mxGeometry x="925" y="190" width="50" height="50" as="geometry" />
        </mxCell>
        <mxCell id="NYfBf1Peq1otCfuUK5g1-32" value="" style="endArrow=classic;html=1;rounded=0;edgeStyle=orthogonalEdgeStyle;curved=1;strokeWidth=2;dashed=1;entryX=0;entryY=0.5;entryDx=0;entryDy=0;exitX=1;exitY=0.5;exitDx=0;exitDy=0;" parent="1" source="NYfBf1Peq1otCfuUK5g1-28" target="NYfBf1Peq1otCfuUK5g1-22" edge="1">
          <mxGeometry width="50" height="50" relative="1" as="geometry">
            <mxPoint x="895" y="297" as="sourcePoint" />
            <mxPoint x="1365" y="405" as="targetPoint" />
          </mxGeometry>
        </mxCell>
        <mxCell id="NYfBf1Peq1otCfuUK5g1-33" value="" style="ellipse;whiteSpace=wrap;html=1;aspect=fixed;fillColor=#60a917;strokeColor=#2D7600;fontColor=#ffffff;" parent="1" vertex="1">
          <mxGeometry x="1350" y="190" width="50" height="50" as="geometry" />
        </mxCell>
        <mxCell id="NYfBf1Peq1otCfuUK5g1-35" value="" style="ellipse;whiteSpace=wrap;html=1;aspect=fixed;fillColor=#fff2cc;strokeColor=#d6b656;" parent="1" vertex="1">
          <mxGeometry x="1039.5" y="575" width="50" height="50" as="geometry" />
        </mxCell>
        <mxCell id="NYfBf1Peq1otCfuUK5g1-36" value="v1.0.0" style="text;html=1;align=center;verticalAlign=middle;whiteSpace=wrap;rounded=0;strokeColor=#2D7600;fillColor=#60a917;fontColor=#000000;" parent="1" vertex="1">
          <mxGeometry x="95" y="157" width="60" height="30" as="geometry" />
        </mxCell>
        <mxCell id="NYfBf1Peq1otCfuUK5g1-37" value="v1.1.0" style="text;html=1;align=center;verticalAlign=middle;whiteSpace=wrap;rounded=0;strokeColor=#2D7600;fillColor=#60a917;fontColor=#000000;" parent="1" vertex="1">
          <mxGeometry x="755" y="158" width="60" height="30" as="geometry" />
        </mxCell>
        <mxCell id="NYfBf1Peq1otCfuUK5g1-38" value="" style="endArrow=classic;html=1;rounded=0;exitX=1;exitY=0.5;exitDx=0;exitDy=0;edgeStyle=orthogonalEdgeStyle;curved=1;strokeWidth=2;dashed=1;entryX=0;entryY=0.5;entryDx=0;entryDy=0;" parent="1" source="NYfBf1Peq1otCfuUK5g1-35" target="1HN_ALmHhBf3XGady2QY-6" edge="1">
          <mxGeometry width="50" height="50" relative="1" as="geometry">
            <mxPoint x="1535" y="600" as="sourcePoint" />
            <mxPoint x="1625" y="600" as="targetPoint" />
          </mxGeometry>
        </mxCell>
        <mxCell id="NYfBf1Peq1otCfuUK5g1-39" value="" style="ellipse;whiteSpace=wrap;html=1;aspect=fixed;fillColor=#60a917;strokeColor=#2D7600;fontColor=#ffffff;" parent="1" vertex="1">
          <mxGeometry x="760" y="190" width="50" height="50" as="geometry" />
        </mxCell>
        <mxCell id="NYfBf1Peq1otCfuUK5g1-40" value="" style="ellipse;whiteSpace=wrap;html=1;aspect=fixed;fillColor=#fff2cc;strokeColor=#d6b656;" parent="1" vertex="1">
          <mxGeometry x="540" y="575" width="50" height="50" as="geometry" />
        </mxCell>
        <mxCell id="NYfBf1Peq1otCfuUK5g1-41" value="" style="endArrow=classic;html=1;rounded=0;exitX=1;exitY=0.5;exitDx=0;exitDy=0;edgeStyle=orthogonalEdgeStyle;curved=1;strokeWidth=2;dashed=1;entryX=0.5;entryY=0;entryDx=0;entryDy=0;" parent="1" source="NYfBf1Peq1otCfuUK5g1-25" target="NYfBf1Peq1otCfuUK5g1-40" edge="1">
          <mxGeometry width="50" height="50" relative="1" as="geometry">
            <mxPoint x="590" y="555" as="sourcePoint" />
            <mxPoint x="680" y="555" as="targetPoint" />
          </mxGeometry>
        </mxCell>
        <mxCell id="NYfBf1Peq1otCfuUK5g1-42" value="" style="endArrow=classic;html=1;rounded=0;exitX=1;exitY=0.5;exitDx=0;exitDy=0;edgeStyle=orthogonalEdgeStyle;curved=1;strokeWidth=2;dashed=1;entryX=0;entryY=0.5;entryDx=0;entryDy=0;" parent="1" source="NYfBf1Peq1otCfuUK5g1-40" target="1HN_ALmHhBf3XGady2QY-2" edge="1">
          <mxGeometry width="50" height="50" relative="1" as="geometry">
            <mxPoint x="1070" y="445.00000000000006" as="sourcePoint" />
            <mxPoint x="1160" y="445.00000000000006" as="targetPoint" />
          </mxGeometry>
        </mxCell>
        <mxCell id="NYfBf1Peq1otCfuUK5g1-43" value="v1.1.1" style="text;html=1;align=center;verticalAlign=middle;whiteSpace=wrap;rounded=0;strokeColor=#2D7600;fillColor=#60a917;fontColor=#000000;" parent="1" vertex="1">
          <mxGeometry x="920" y="158" width="60" height="30" as="geometry" />
        </mxCell>
        <mxCell id="NYfBf1Peq1otCfuUK5g1-44" value="" style="endArrow=classic;html=1;rounded=0;exitX=1;exitY=0.5;exitDx=0;exitDy=0;edgeStyle=orthogonalEdgeStyle;curved=1;strokeWidth=2;dashed=1;entryX=0;entryY=0.5;entryDx=0;entryDy=0;" parent="1" source="NYfBf1Peq1otCfuUK5g1-39" target="NYfBf1Peq1otCfuUK5g1-28" edge="1">
          <mxGeometry width="50" height="50" relative="1" as="geometry">
            <mxPoint x="555" y="239.17000000000004" as="sourcePoint" />
            <mxPoint x="645" y="239.17000000000004" as="targetPoint" />
          </mxGeometry>
        </mxCell>
        <mxCell id="NYfBf1Peq1otCfuUK5g1-45" value="" style="endArrow=classic;html=1;rounded=0;exitX=1;exitY=0.5;exitDx=0;exitDy=0;edgeStyle=orthogonalEdgeStyle;curved=1;strokeWidth=2;dashed=1;entryX=0;entryY=0.5;entryDx=0;entryDy=0;" parent="1" source="NYfBf1Peq1otCfuUK5g1-28" target="NYfBf1Peq1otCfuUK5g1-31" edge="1">
          <mxGeometry width="50" height="50" relative="1" as="geometry">
            <mxPoint x="1295" y="399.71000000000004" as="sourcePoint" />
            <mxPoint x="1385" y="399.71000000000004" as="targetPoint" />
          </mxGeometry>
        </mxCell>
        <mxCell id="NYfBf1Peq1otCfuUK5g1-47" value="" style="endArrow=classic;html=1;rounded=0;exitX=1;exitY=0.5;exitDx=0;exitDy=0;edgeStyle=orthogonalEdgeStyle;curved=1;strokeWidth=2;dashed=1;entryX=0;entryY=0.5;entryDx=0;entryDy=0;" parent="1" source="NYfBf1Peq1otCfuUK5g1-1" target="NYfBf1Peq1otCfuUK5g1-39" edge="1">
          <mxGeometry width="50" height="50" relative="1" as="geometry">
            <mxPoint x="1170" y="409.71000000000004" as="sourcePoint" />
            <mxPoint x="1260" y="409.71000000000004" as="targetPoint" />
          </mxGeometry>
        </mxCell>
        <mxCell id="NYfBf1Peq1otCfuUK5g1-48" value="" style="ellipse;whiteSpace=wrap;html=1;aspect=fixed;fillColor=#dae8fc;strokeColor=#6c8ebf;" parent="1" vertex="1">
          <mxGeometry x="980" y="650" width="50" height="50" as="geometry" />
        </mxCell>
        <mxCell id="NYfBf1Peq1otCfuUK5g1-49" value="" style="endArrow=classic;html=1;rounded=0;exitX=0.5;exitY=1;exitDx=0;exitDy=0;edgeStyle=orthogonalEdgeStyle;curved=1;strokeWidth=2;dashed=1;entryX=0;entryY=0.5;entryDx=0;entryDy=0;" parent="1" source="NYfBf1Peq1otCfuUK5g1-22" target="NYfBf1Peq1otCfuUK5g1-48" edge="1">
          <mxGeometry width="50" height="50" relative="1" as="geometry">
            <mxPoint x="944.5" y="650" as="sourcePoint" />
            <mxPoint x="1179.5" y="672.21" as="targetPoint" />
          </mxGeometry>
        </mxCell>
        <mxCell id="NYfBf1Peq1otCfuUK5g1-50" value="" style="endArrow=classic;html=1;rounded=0;exitX=1;exitY=0.5;exitDx=0;exitDy=0;edgeStyle=orthogonalEdgeStyle;curved=1;strokeWidth=2;dashed=1;entryX=0.5;entryY=1;entryDx=0;entryDy=0;" parent="1" source="NYfBf1Peq1otCfuUK5g1-48" target="NYfBf1Peq1otCfuUK5g1-35" edge="1">
          <mxGeometry width="50" height="50" relative="1" as="geometry">
            <mxPoint x="889.5" y="870" as="sourcePoint" />
            <mxPoint x="1074.5" y="650" as="targetPoint" />
          </mxGeometry>
        </mxCell>
        <mxCell id="NYfBf1Peq1otCfuUK5g1-51" value="v1.2.0" style="text;html=1;align=center;verticalAlign=middle;whiteSpace=wrap;rounded=0;strokeColor=#2D7600;fillColor=#60a917;fontColor=#000000;" parent="1" vertex="1">
          <mxGeometry x="1345" y="157" width="60" height="30" as="geometry" />
        </mxCell>
        <mxCell id="NYfBf1Peq1otCfuUK5g1-52" value="" style="endArrow=classic;html=1;rounded=0;exitX=1;exitY=0.5;exitDx=0;exitDy=0;edgeStyle=orthogonalEdgeStyle;curved=1;strokeWidth=2;dashed=1;entryX=0;entryY=0.5;entryDx=0;entryDy=0;" parent="1" source="NYfBf1Peq1otCfuUK5g1-39" target="NYfBf1Peq1otCfuUK5g1-31" edge="1">
          <mxGeometry width="50" height="50" relative="1" as="geometry">
            <mxPoint x="1295" y="399.71000000000004" as="sourcePoint" />
            <mxPoint x="1385" y="399.71000000000004" as="targetPoint" />
          </mxGeometry>
        </mxCell>
        <mxCell id="NYfBf1Peq1otCfuUK5g1-53" value="" style="endArrow=classic;html=1;rounded=0;exitX=1;exitY=0.5;exitDx=0;exitDy=0;edgeStyle=orthogonalEdgeStyle;curved=1;strokeWidth=2;dashed=1;entryX=0;entryY=0.5;entryDx=0;entryDy=0;" parent="1" source="NYfBf1Peq1otCfuUK5g1-31" target="NYfBf1Peq1otCfuUK5g1-33" edge="1">
          <mxGeometry width="50" height="50" relative="1" as="geometry">
            <mxPoint x="1295" y="399.71000000000004" as="sourcePoint" />
            <mxPoint x="1385" y="399.71000000000004" as="targetPoint" />
          </mxGeometry>
        </mxCell>
        <mxCell id="NYfBf1Peq1otCfuUK5g1-54" value="" style="endArrow=classic;html=1;rounded=0;exitX=1;exitY=0.5;exitDx=0;exitDy=0;edgeStyle=orthogonalEdgeStyle;curved=1;strokeWidth=2;dashed=1;entryX=0;entryY=0.5;entryDx=0;entryDy=0;" parent="1" source="NYfBf1Peq1otCfuUK5g1-19" target="NYfBf1Peq1otCfuUK5g1-40" edge="1">
          <mxGeometry width="50" height="50" relative="1" as="geometry">
            <mxPoint x="1170" y="810" as="sourcePoint" />
            <mxPoint x="1260" y="810" as="targetPoint" />
          </mxGeometry>
        </mxCell>
        <mxCell id="NYfBf1Peq1otCfuUK5g1-55" value="" style="endArrow=classic;html=1;rounded=0;exitX=1;exitY=0.5;exitDx=0;exitDy=0;edgeStyle=orthogonalEdgeStyle;curved=1;strokeWidth=2;dashed=1;entryX=0;entryY=0.5;entryDx=0;entryDy=0;" parent="1" source="NYfBf1Peq1otCfuUK5g1-40" target="NYfBf1Peq1otCfuUK5g1-22" edge="1">
          <mxGeometry width="50" height="50" relative="1" as="geometry">
            <mxPoint x="1060" y="840" as="sourcePoint" />
            <mxPoint x="1150" y="840" as="targetPoint" />
          </mxGeometry>
        </mxCell>
        <mxCell id="NYfBf1Peq1otCfuUK5g1-56" value="" style="endArrow=classic;html=1;rounded=0;exitX=1;exitY=0.5;exitDx=0;exitDy=0;edgeStyle=orthogonalEdgeStyle;curved=1;strokeWidth=2;dashed=1;entryX=0;entryY=0.5;entryDx=0;entryDy=0;" parent="1" source="NYfBf1Peq1otCfuUK5g1-22" target="NYfBf1Peq1otCfuUK5g1-35" edge="1">
          <mxGeometry width="50" height="50" relative="1" as="geometry">
            <mxPoint x="1295" y="539.71" as="sourcePoint" />
            <mxPoint x="1385" y="539.71" as="targetPoint" />
          </mxGeometry>
        </mxCell>
        <mxCell id="NYfBf1Peq1otCfuUK5g1-57" value="&lt;b&gt;release/*&lt;/b&gt;" style="ellipse;whiteSpace=wrap;html=1;aspect=fixed;fillColor=#d5e8d4;strokeColor=#82b366;" parent="1" vertex="1">
          <mxGeometry x="250" y="800" width="50" height="50" as="geometry" />
        </mxCell>
        <mxCell id="NYfBf1Peq1otCfuUK5g1-58" value="&lt;b&gt;hotfix/*&lt;/b&gt;" style="ellipse;whiteSpace=wrap;html=1;aspect=fixed;fillColor=#f8cecc;strokeColor=#b85450;" parent="1" vertex="1">
          <mxGeometry x="180" y="800" width="50" height="50" as="geometry" />
        </mxCell>
        <mxCell id="NYfBf1Peq1otCfuUK5g1-59" value="&lt;b&gt;develop&lt;/b&gt;" style="ellipse;whiteSpace=wrap;html=1;aspect=fixed;fillColor=#fff2cc;strokeColor=#d6b656;" parent="1" vertex="1">
          <mxGeometry x="330" y="800" width="50" height="50" as="geometry" />
        </mxCell>
        <mxCell id="NYfBf1Peq1otCfuUK5g1-60" value="&lt;b&gt;Legenda:&lt;/b&gt;" style="text;html=1;align=center;verticalAlign=middle;whiteSpace=wrap;rounded=0;" parent="1" vertex="1">
          <mxGeometry x="20" y="810" width="60" height="30" as="geometry" />
        </mxCell>
        <mxCell id="NYfBf1Peq1otCfuUK5g1-61" value="&lt;b&gt;bugfix/*&lt;/b&gt;" style="ellipse;whiteSpace=wrap;html=1;aspect=fixed;fillColor=#ffe6cc;strokeColor=#d79b00;" parent="1" vertex="1">
          <mxGeometry x="410" y="800" width="50" height="50" as="geometry" />
        </mxCell>
        <mxCell id="NYfBf1Peq1otCfuUK5g1-62" value="&lt;b&gt;feature/*&lt;/b&gt;" style="ellipse;whiteSpace=wrap;html=1;aspect=fixed;fillColor=#dae8fc;strokeColor=#6c8ebf;" parent="1" vertex="1">
          <mxGeometry x="490" y="800" width="50" height="50" as="geometry" />
        </mxCell>
        <mxCell id="NYfBf1Peq1otCfuUK5g1-65" value="" style="ellipse;whiteSpace=wrap;html=1;aspect=fixed;fillColor=#fff2cc;strokeColor=#d6b656;" parent="1" vertex="1">
          <mxGeometry x="1350" y="575" width="50" height="50" as="geometry" />
        </mxCell>
        <mxCell id="NYfBf1Peq1otCfuUK5g1-67" value="" style="endArrow=classic;html=1;rounded=0;exitX=1;exitY=0.5;exitDx=0;exitDy=0;edgeStyle=orthogonalEdgeStyle;curved=1;strokeWidth=2;dashed=1;entryX=0;entryY=0.5;entryDx=0;entryDy=0;" parent="1" source="NYfBf1Peq1otCfuUK5g1-35" target="NYfBf1Peq1otCfuUK5g1-65" edge="1">
          <mxGeometry width="50" height="50" relative="1" as="geometry">
            <mxPoint x="999" y="610" as="sourcePoint" />
            <mxPoint x="1050" y="610" as="targetPoint" />
          </mxGeometry>
        </mxCell>
        <mxCell id="NYfBf1Peq1otCfuUK5g1-68" value="&lt;font style=&quot;font-size: 20px;&quot;&gt;GFO Flow - Fluxo de trabalho com repositório de código Gitlab&lt;/font&gt;" style="text;html=1;align=left;verticalAlign=middle;whiteSpace=wrap;rounded=0;" parent="1" vertex="1">
          <mxGeometry x="20" y="110" width="570" height="30" as="geometry" />
        </mxCell>
        <mxCell id="1HN_ALmHhBf3XGady2QY-2" value="" style="ellipse;whiteSpace=wrap;html=1;aspect=fixed;fillColor=#d5e8d4;strokeColor=#82b366;" vertex="1" parent="1">
          <mxGeometry x="655" y="410" width="50" height="50" as="geometry" />
        </mxCell>
        <mxCell id="1HN_ALmHhBf3XGady2QY-3" value="" style="endArrow=classic;html=1;rounded=0;exitX=1;exitY=0.5;exitDx=0;exitDy=0;edgeStyle=orthogonalEdgeStyle;curved=1;strokeWidth=2;dashed=1;entryX=0;entryY=0.5;entryDx=0;entryDy=0;" edge="1" parent="1" source="1HN_ALmHhBf3XGady2QY-2" target="NYfBf1Peq1otCfuUK5g1-39">
          <mxGeometry width="50" height="50" relative="1" as="geometry">
            <mxPoint x="810" y="405" as="sourcePoint" />
            <mxPoint x="770" y="415" as="targetPoint" />
          </mxGeometry>
        </mxCell>
        <mxCell id="1HN_ALmHhBf3XGady2QY-4" value="&lt;b&gt;main&lt;/b&gt;" style="ellipse;whiteSpace=wrap;html=1;aspect=fixed;fillColor=#60a917;strokeColor=#2D7600;fontColor=light-dark(#000000, #121212);" vertex="1" parent="1">
          <mxGeometry x="100" y="800" width="50" height="50" as="geometry" />
        </mxCell>
        <mxCell id="1HN_ALmHhBf3XGady2QY-5" value="v1.1.0-rc1" style="text;html=1;align=center;verticalAlign=middle;whiteSpace=wrap;rounded=0;strokeColor=#82b366;fillColor=#d5e8d4;" vertex="1" parent="1">
          <mxGeometry x="645" y="374" width="70" height="30" as="geometry" />
        </mxCell>
        <mxCell id="1HN_ALmHhBf3XGady2QY-6" value="" style="ellipse;whiteSpace=wrap;html=1;aspect=fixed;fillColor=#d5e8d4;strokeColor=#82b366;" vertex="1" parent="1">
          <mxGeometry x="1120" y="410" width="50" height="50" as="geometry" />
        </mxCell>
        <mxCell id="1HN_ALmHhBf3XGady2QY-7" value="v1.2.0-rc1" style="text;html=1;align=center;verticalAlign=middle;whiteSpace=wrap;rounded=0;strokeColor=#82b366;fillColor=#d5e8d4;" vertex="1" parent="1">
          <mxGeometry x="1110" y="373" width="70" height="30" as="geometry" />
        </mxCell>
        <mxCell id="1HN_ALmHhBf3XGady2QY-9" value="" style="ellipse;whiteSpace=wrap;html=1;aspect=fixed;fillColor=#d5e8d4;strokeColor=#82b366;" vertex="1" parent="1">
          <mxGeometry x="1220" y="410" width="50" height="50" as="geometry" />
        </mxCell>
        <mxCell id="1HN_ALmHhBf3XGady2QY-10" value="v1.2.0-rc2" style="text;html=1;align=center;verticalAlign=middle;whiteSpace=wrap;rounded=0;strokeColor=#82b366;fillColor=#d5e8d4;" vertex="1" parent="1">
          <mxGeometry x="1210" y="373" width="70" height="30" as="geometry" />
        </mxCell>
        <mxCell id="1HN_ALmHhBf3XGady2QY-11" value="" style="endArrow=classic;html=1;rounded=0;exitX=1;exitY=0.5;exitDx=0;exitDy=0;edgeStyle=orthogonalEdgeStyle;curved=1;strokeWidth=2;dashed=1;entryX=0;entryY=0.5;entryDx=0;entryDy=0;" edge="1" parent="1" source="1HN_ALmHhBf3XGady2QY-6" target="1HN_ALmHhBf3XGady2QY-9">
          <mxGeometry width="50" height="50" relative="1" as="geometry">
            <mxPoint x="1100" y="610" as="sourcePoint" />
            <mxPoint x="1130" y="445" as="targetPoint" />
          </mxGeometry>
        </mxCell>
        <mxCell id="1HN_ALmHhBf3XGady2QY-12" value="" style="endArrow=classic;html=1;rounded=0;exitX=1;exitY=0.5;exitDx=0;exitDy=0;edgeStyle=orthogonalEdgeStyle;curved=1;strokeWidth=2;dashed=1;entryX=0;entryY=0.5;entryDx=0;entryDy=0;" edge="1" parent="1" source="1HN_ALmHhBf3XGady2QY-9" target="NYfBf1Peq1otCfuUK5g1-33">
          <mxGeometry width="50" height="50" relative="1" as="geometry">
            <mxPoint x="1100" y="610" as="sourcePoint" />
            <mxPoint x="1130" y="445" as="targetPoint" />
          </mxGeometry>
        </mxCell>
        <mxCell id="1HN_ALmHhBf3XGady2QY-13" value="" style="endArrow=classic;html=1;rounded=0;exitX=1;exitY=0.5;exitDx=0;exitDy=0;edgeStyle=orthogonalEdgeStyle;curved=1;strokeWidth=2;dashed=1;entryX=0;entryY=0.5;entryDx=0;entryDy=0;" edge="1" parent="1" source="1HN_ALmHhBf3XGady2QY-9" target="NYfBf1Peq1otCfuUK5g1-65">
          <mxGeometry width="50" height="50" relative="1" as="geometry">
            <mxPoint x="1280" y="445" as="sourcePoint" />
            <mxPoint x="1360" y="225" as="targetPoint" />
          </mxGeometry>
        </mxCell>
      </root>
    </mxGraphModel>
  </diagram>
</mxfile>
